<svg width="129" height="142" viewBox="0 0 129 142" fill="none" xmlns="http://www.w3.org/2000/svg">
<path d="M113.394 0C110.288 9.22985 77.2793 108.991 76.5027 111.151C76.5027 111.347 76.3085 111.74 76.1143 111.74C75.9202 111.937 75.726 111.937 75.3376 111.937H47.7659C46.9893 111.937 46.7951 111.544 46.6009 110.955C43.3001 101.136 31.4559 65.3945 28.9317 57.1465C28.7375 56.7538 28.7375 56.361 28.7375 55.9683C28.7375 55.5755 28.9317 55.1827 29.1259 54.9864C31.2617 51.8443 33.7859 48.8986 36.5042 46.1493C40.1934 42.6144 44.4651 39.276 48.9309 36.723C49.3193 36.3303 49.5134 36.5267 49.7076 37.1158C52.4259 46.542 59.9985 73.4461 61.1635 77.7664C61.1635 77.9628 61.1635 78.3556 61.5518 78.3556C61.9401 78.3556 61.746 77.9628 61.9401 77.7664C65.0468 66.7691 82.3277 6.28416 83.881 1.17828C83.881 0.785519 84.0752 0.39276 84.4635 0H113.394Z" fill="white"/>
<path d="M0 85.4254C0.194167 84.6399 0.194167 83.8544 0.194167 83.0688C1.35917 70.6969 5.43668 58.7178 12.4267 48.506C23.6884 31.2246 40.9693 18.6563 60.7743 13.5504C65.046 12.3721 69.5118 11.783 73.9777 11.5866C74.9485 11.5866 74.9485 11.5866 74.7543 12.5685C73.7835 15.7106 72.8127 19.049 71.8418 22.3875C71.8418 22.7803 71.4535 23.173 71.0651 23.173C61.9393 24.1549 53.2018 27.297 45.4351 32.4029C33.9792 39.2762 24.8534 49.2915 18.8342 61.4671C15.9217 66.9657 14.1742 73.0535 13.2034 79.1413C11.0675 92.8878 15.5334 107.027 25.2417 117.239C31.2609 123.719 39.4159 128.04 47.9593 129.611C56.6968 131.182 65.6285 130.396 73.9777 127.451C81.356 124.898 88.1518 120.97 94.3652 116.061C97.8602 113.311 100.967 110.366 104.074 107.027C104.268 106.634 104.656 106.438 105.044 106.438H118.442C118.442 106.634 118.442 106.634 118.442 106.831C118.442 107.027 118.248 107.027 118.248 107.224C109.899 118.417 99.2194 127.451 86.9868 133.735C80.191 137.27 73.0068 139.626 65.4343 141.001C51.8426 143.554 37.6684 141.197 25.6301 134.128C13.2034 127.058 4.27168 114.686 1.55334 100.547C0.970835 97.9937 0.582501 95.2444 0.388334 92.6915C0.388334 92.4951 0.388334 92.2987 0.194167 92.1023V85.4254H0Z" fill="white"/>
<path d="M122.326 45.9529H115.918C115.724 45.9529 115.53 45.9529 115.336 45.7566C115.141 45.5602 114.947 45.5602 114.947 45.3638C113.2 41.829 110.87 38.6869 108.151 35.7412C107.957 35.5448 107.957 35.3484 107.957 35.3484C107.957 35.152 107.957 34.9557 107.957 34.7593C109.316 30.8317 110.675 26.9041 111.84 22.9765C112.035 22.3873 112.229 22.3873 112.617 22.7801C119.413 27.886 124.656 34.5629 127.956 42.4181C128.345 43.4 128.733 44.3819 128.927 45.3638C129.121 45.9529 128.927 46.1493 128.345 46.1493L122.326 45.9529Z" fill="white"/>
</svg>
